<svg id="visual" viewBox="0 0 900 600" width="900" height="600" xmlns="http://www.w3.org/2000/svg" xmlns:xlink="http://www.w3.org/1999/xlink" version="1.1"><rect x="0" y="0" width="900" height="600" fill="#4de7d7"></rect><defs><linearGradient id="grad1_0" x1="33.3%" y1="0%" x2="100%" y2="100%"><stop offset="20%" stop-color="#005071" stop-opacity="1"></stop><stop offset="80%" stop-color="#005071" stop-opacity="1"></stop></linearGradient></defs><defs><linearGradient id="grad1_1" x1="33.3%" y1="0%" x2="100%" y2="100%"><stop offset="20%" stop-color="#005071" stop-opacity="1"></stop><stop offset="80%" stop-color="#0099b0" stop-opacity="1"></stop></linearGradient></defs><defs><linearGradient id="grad1_2" x1="33.3%" y1="0%" x2="100%" y2="100%"><stop offset="20%" stop-color="#4de7d7" stop-opacity="1"></stop><stop offset="80%" stop-color="#0099b0" stop-opacity="1"></stop></linearGradient></defs><defs><linearGradient id="grad2_0" x1="0%" y1="0%" x2="66.7%" y2="100%"><stop offset="20%" stop-color="#005071" stop-opacity="1"></stop><stop offset="80%" stop-color="#005071" stop-opacity="1"></stop></linearGradient></defs><defs><linearGradient id="grad2_1" x1="0%" y1="0%" x2="66.7%" y2="100%"><stop offset="20%" stop-color="#0099b0" stop-opacity="1"></stop><stop offset="80%" stop-color="#005071" stop-opacity="1"></stop></linearGradient></defs><defs><linearGradient id="grad2_2" x1="0%" y1="0%" x2="66.7%" y2="100%"><stop offset="20%" stop-color="#0099b0" stop-opacity="1"></stop><stop offset="80%" stop-color="#4de7d7" stop-opacity="1"></stop></linearGradient></defs><g transform="translate(900, 0)"><path d="M0 486.7C-73.1 489.5 -146.2 492.3 -186.3 449.7C-226.4 407.1 -233.5 319 -269.4 269.4C-305.3 219.8 -370.1 208.8 -411.1 170.3C-452.2 131.8 -469.5 65.9 -486.7 0L0 0Z" fill="#0ac0c7"></path><path d="M0 324.5C-48.7 326.4 -97.4 328.2 -124.2 299.8C-150.9 271.4 -155.7 212.7 -179.6 179.6C-203.6 146.6 -246.7 139.2 -274.1 113.5C-301.4 87.9 -313 43.9 -324.5 0L0 0Z" fill="#007493"></path><path d="M0 162.2C-24.4 163.2 -48.7 164.1 -62.1 149.9C-75.5 135.7 -77.8 106.3 -89.8 89.8C-101.8 73.3 -123.4 69.6 -137 56.8C-150.7 43.9 -156.5 22 -162.2 0L0 0Z" fill="#005071"></path></g><g transform="translate(0, 600)"><path d="M0 -486.7C43.9 -432.3 87.7 -377.9 150 -362.2C212.3 -346.4 293 -369.3 344.2 -344.2C395.4 -319.1 417.2 -246 436.1 -180.6C454.9 -115.3 470.8 -57.6 486.7 0L0 0Z" fill="#0ac0c7"></path><path d="M0 -324.5C29.2 -288.2 58.5 -251.9 100 -241.4C141.5 -230.9 195.3 -246.2 229.5 -229.5C263.6 -212.7 278.1 -164 290.7 -120.4C303.3 -76.8 313.9 -38.4 324.5 0L0 0Z" fill="#007493"></path><path d="M0 -162.2C14.6 -144.1 29.2 -126 50 -120.7C70.8 -115.5 97.7 -123.1 114.7 -114.7C131.8 -106.4 139.1 -82 145.4 -60.2C151.6 -38.4 156.9 -19.2 162.2 0L0 0Z" fill="#005071"></path></g></svg>