<svg id="visual" viewBox="0 0 900 600" width="900" height="600" xmlns="http://www.w3.org/2000/svg" xmlns:xlink="http://www.w3.org/1999/xlink" version="1.1"><rect x="0" y="0" width="900" height="600" fill="#ebffff"></rect><path d="M0 393L21.5 392.8C43 392.7 86 392.3 128.8 401.7C171.7 411 214.3 430 257.2 438.3C300 446.7 343 444.3 385.8 444.2C428.7 444 471.3 446 514.2 436.2C557 426.3 600 404.7 642.8 398.3C685.7 392 728.3 401 771.2 401.5C814 402 857 394 878.5 390L900 386L900 601L878.5 601C857 601 814 601 771.2 601C728.3 601 685.7 601 642.8 601C600 601 557 601 514.2 601C471.3 601 428.7 601 385.8 601C343 601 300 601 257.2 601C214.3 601 171.7 601 128.8 601C86 601 43 601 21.5 601L0 601Z" fill="#003894"></path><path d="M0 436L21.5 434.2C43 432.3 86 428.7 128.8 429.8C171.7 431 214.3 437 257.2 440.2C300 443.3 343 443.7 385.8 437C428.7 430.3 471.3 416.7 514.2 420.5C557 424.3 600 445.7 642.8 448.2C685.7 450.7 728.3 434.3 771.2 433.3C814 432.3 857 446.7 878.5 453.8L900 461L900 601L878.5 601C857 601 814 601 771.2 601C728.3 601 685.7 601 642.8 601C600 601 557 601 514.2 601C471.3 601 428.7 601 385.8 601C343 601 300 601 257.2 601C214.3 601 171.7 601 128.8 601C86 601 43 601 21.5 601L0 601Z" fill="#0057b2"></path><path d="M0 476L21.5 478.2C43 480.3 86 484.7 128.8 482.2C171.7 479.7 214.3 470.3 257.2 471.7C300 473 343 485 385.8 483.5C428.7 482 471.3 467 514.2 464.8C557 462.7 600 473.3 642.8 471.5C685.7 469.7 728.3 455.3 771.2 454.2C814 453 857 465 878.5 471L900 477L900 601L878.5 601C857 601 814 601 771.2 601C728.3 601 685.7 601 642.8 601C600 601 557 601 514.2 601C471.3 601 428.7 601 385.8 601C343 601 300 601 257.2 601C214.3 601 171.7 601 128.8 601C86 601 43 601 21.5 601L0 601Z" fill="#0076ce"></path><path d="M0 538L21.5 530.2C43 522.3 86 506.7 128.8 504.3C171.7 502 214.3 513 257.2 517.3C300 521.7 343 519.3 385.8 520.2C428.7 521 471.3 525 514.2 525.7C557 526.3 600 523.7 642.8 525.8C685.7 528 728.3 535 771.2 531.7C814 528.3 857 514.7 878.5 507.8L900 501L900 601L878.5 601C857 601 814 601 771.2 601C728.3 601 685.7 601 642.8 601C600 601 557 601 514.2 601C471.3 601 428.7 601 385.8 601C343 601 300 601 257.2 601C214.3 601 171.7 601 128.8 601C86 601 43 601 21.5 601L0 601Z" fill="#0095e8"></path><path d="M0 549L21.5 551.5C43 554 86 559 128.8 562.7C171.7 566.3 214.3 568.7 257.2 568C300 567.3 343 563.7 385.8 561.3C428.7 559 471.3 558 514.2 559.8C557 561.7 600 566.3 642.8 569C685.7 571.7 728.3 572.3 771.2 567.7C814 563 857 553 878.5 548L900 543L900 601L878.5 601C857 601 814 601 771.2 601C728.3 601 685.7 601 642.8 601C600 601 557 601 514.2 601C471.3 601 428.7 601 385.8 601C343 601 300 601 257.2 601C214.3 601 171.7 601 128.8 601C86 601 43 601 21.5 601L0 601Z" fill="#00b5ff"></path></svg>