<svg id="visual" viewBox="0 0 900 600" width="900" height="600" xmlns="http://www.w3.org/2000/svg" xmlns:xlink="http://www.w3.org/1999/xlink" version="1.1"><g stroke-width="1" stroke-linejoin="bevel"><path d="M499 239L480 122L434 196Z" fill="#331342" stroke="#331342"></path><path d="M480 122L431 109L434 196Z" fill="#85215b" stroke="#85215b"></path><path d="M499 239L589 165L480 122Z" fill="#631b54" stroke="#631b54"></path><path d="M589 165L599 114L480 122Z" fill="#85215b" stroke="#85215b"></path><path d="M480 122L490 0L431 109Z" fill="#96245c" stroke="#96245c"></path><path d="M371 282L528 322L499 239Z" fill="#53194f" stroke="#53194f"></path><path d="M499 239L614 299L589 165Z" fill="#53194f" stroke="#53194f"></path><path d="M282 237L371 282L434 196Z" fill="#96245c" stroke="#96245c"></path><path d="M434 196L371 282L499 239Z" fill="#0b0028" stroke="#0b0028"></path><path d="M528 322L614 299L499 239Z" fill="#0b0028" stroke="#0b0028"></path><path d="M589 165L674 185L599 114Z" fill="#331342" stroke="#331342"></path><path d="M572 0L490 0L480 122Z" fill="#331342" stroke="#331342"></path><path d="M614 299L674 185L589 165Z" fill="#24103a" stroke="#24103a"></path><path d="M599 114L572 0L480 122Z" fill="#170b31" stroke="#170b31"></path><path d="M674 185L663 97L599 114Z" fill="#170b31" stroke="#170b31"></path><path d="M663 97L572 0L599 114Z" fill="#170b31" stroke="#170b31"></path><path d="M490 0L386 0L431 109Z" fill="#0b0028" stroke="#0b0028"></path><path d="M278 94L282 237L434 196Z" fill="#431649" stroke="#431649"></path><path d="M371 282L402 371L528 322Z" fill="#24103a" stroke="#24103a"></path><path d="M528 322L596 364L614 299Z" fill="#741e58" stroke="#741e58"></path><path d="M493 406L596 364L528 322Z" fill="#631b54" stroke="#631b54"></path><path d="M614 299L716 270L674 185Z" fill="#631b54" stroke="#631b54"></path><path d="M278 94L434 196L431 109Z" fill="#170b31" stroke="#170b31"></path><path d="M371 282L307 336L402 371Z" fill="#431649" stroke="#431649"></path><path d="M402 371L493 406L528 322Z" fill="#96245c" stroke="#96245c"></path><path d="M386 0L278 94L431 109Z" fill="#0b0028" stroke="#0b0028"></path><path d="M282 237L307 336L371 282Z" fill="#431649" stroke="#431649"></path><path d="M402 371L497 471L493 406Z" fill="#631b54" stroke="#631b54"></path><path d="M716 418L716 270L614 299Z" fill="#631b54" stroke="#631b54"></path><path d="M770 121L703 0L663 97Z" fill="#a6295d" stroke="#a6295d"></path><path d="M278 94L238 139L282 237Z" fill="#96245c" stroke="#96245c"></path><path d="M282 237L214 329L307 336Z" fill="#96245c" stroke="#96245c"></path><path d="M770 121L663 97L674 185Z" fill="#631b54" stroke="#631b54"></path><path d="M663 97L703 0L572 0Z" fill="#631b54" stroke="#631b54"></path><path d="M386 0L279 0L278 94Z" fill="#a6295d" stroke="#a6295d"></path><path d="M278 94L165 0L238 139Z" fill="#24103a" stroke="#24103a"></path><path d="M801 185L770 121L674 185Z" fill="#170b31" stroke="#170b31"></path><path d="M363 503L497 471L402 371Z" fill="#331342" stroke="#331342"></path><path d="M493 406L571 485L596 364Z" fill="#24103a" stroke="#24103a"></path><path d="M716 418L777 284L716 270Z" fill="#631b54" stroke="#631b54"></path><path d="M97 97L197 172L238 139Z" fill="#431649" stroke="#431649"></path><path d="M238 139L197 172L282 237Z" fill="#631b54" stroke="#631b54"></path><path d="M716 418L614 299L596 364Z" fill="#331342" stroke="#331342"></path><path d="M716 270L801 185L674 185Z" fill="#53194f" stroke="#53194f"></path><path d="M777 284L801 185L716 270Z" fill="#a6295d" stroke="#a6295d"></path><path d="M212 398L301 426L307 336Z" fill="#a6295d" stroke="#a6295d"></path><path d="M307 336L301 426L402 371Z" fill="#331342" stroke="#331342"></path><path d="M197 172L214 329L282 237Z" fill="#631b54" stroke="#631b54"></path><path d="M497 471L571 485L493 406Z" fill="#85215b" stroke="#85215b"></path><path d="M571 485L716 418L596 364Z" fill="#96245c" stroke="#96245c"></path><path d="M770 121L770 0L703 0Z" fill="#85215b" stroke="#85215b"></path><path d="M900 105L770 0L770 121Z" fill="#85215b" stroke="#85215b"></path><path d="M290 502L363 503L301 426Z" fill="#53194f" stroke="#53194f"></path><path d="M301 426L363 503L402 371Z" fill="#24103a" stroke="#24103a"></path><path d="M497 471L526 600L571 485Z" fill="#a6295d" stroke="#a6295d"></path><path d="M112 314L212 398L214 329Z" fill="#741e58" stroke="#741e58"></path><path d="M214 329L212 398L307 336Z" fill="#85215b" stroke="#85215b"></path><path d="M197 172L134 204L214 329Z" fill="#741e58" stroke="#741e58"></path><path d="M97 97L134 204L197 172Z" fill="#631b54" stroke="#631b54"></path><path d="M279 0L165 0L278 94Z" fill="#85215b" stroke="#85215b"></path><path d="M223 506L290 502L301 426Z" fill="#331342" stroke="#331342"></path><path d="M571 485L705 506L716 418Z" fill="#631b54" stroke="#631b54"></path><path d="M716 418L838 391L777 284Z" fill="#96245c" stroke="#96245c"></path><path d="M593 600L705 506L571 485Z" fill="#96245c" stroke="#96245c"></path><path d="M134 204L112 314L214 329Z" fill="#331342" stroke="#331342"></path><path d="M212 398L223 506L301 426Z" fill="#431649" stroke="#431649"></path><path d="M0 286L112 314L134 204Z" fill="#a6295d" stroke="#a6295d"></path><path d="M165 0L97 97L238 139Z" fill="#85215b" stroke="#85215b"></path><path d="M165 0L128 0L97 97Z" fill="#431649" stroke="#431649"></path><path d="M815 484L838 391L716 418Z" fill="#631b54" stroke="#631b54"></path><path d="M777 284L900 178L801 185Z" fill="#631b54" stroke="#631b54"></path><path d="M801 185L900 105L770 121Z" fill="#53194f" stroke="#53194f"></path><path d="M900 333L900 178L777 284Z" fill="#96245c" stroke="#96245c"></path><path d="M900 178L900 105L801 185Z" fill="#0b0028" stroke="#0b0028"></path><path d="M405 600L497 471L363 503Z" fill="#53194f" stroke="#53194f"></path><path d="M405 600L526 600L497 471Z" fill="#a6295d" stroke="#a6295d"></path><path d="M71 431L223 506L212 398Z" fill="#a6295d" stroke="#a6295d"></path><path d="M331 600L405 600L363 503Z" fill="#96245c" stroke="#96245c"></path><path d="M331 600L363 503L290 502Z" fill="#170b31" stroke="#170b31"></path><path d="M526 600L593 600L571 485Z" fill="#170b31" stroke="#170b31"></path><path d="M838 391L900 333L777 284Z" fill="#0b0028" stroke="#0b0028"></path><path d="M705 506L815 484L716 418Z" fill="#a6295d" stroke="#a6295d"></path><path d="M838 391L900 393L900 333Z" fill="#0b0028" stroke="#0b0028"></path><path d="M812 600L815 484L705 506Z" fill="#170b31" stroke="#170b31"></path><path d="M900 105L900 0L770 0Z" fill="#431649" stroke="#431649"></path><path d="M202 600L331 600L290 502Z" fill="#170b31" stroke="#170b31"></path><path d="M815 484L900 393L838 391Z" fill="#85215b" stroke="#85215b"></path><path d="M593 600L717 600L705 506Z" fill="#24103a" stroke="#24103a"></path><path d="M815 484L900 527L900 393Z" fill="#631b54" stroke="#631b54"></path><path d="M0 366L71 431L112 314Z" fill="#331342" stroke="#331342"></path><path d="M112 314L71 431L212 398Z" fill="#331342" stroke="#331342"></path><path d="M223 506L202 600L290 502Z" fill="#170b31" stroke="#170b31"></path><path d="M97 97L0 182L134 204Z" fill="#96245c" stroke="#96245c"></path><path d="M0 62L0 182L97 97Z" fill="#96245c" stroke="#96245c"></path><path d="M0 182L0 286L134 204Z" fill="#85215b" stroke="#85215b"></path><path d="M128 0L0 62L97 97Z" fill="#741e58" stroke="#741e58"></path><path d="M106 600L202 600L223 506Z" fill="#96245c" stroke="#96245c"></path><path d="M128 0L0 0L0 62Z" fill="#a6295d" stroke="#a6295d"></path><path d="M0 286L0 366L112 314Z" fill="#170b31" stroke="#170b31"></path><path d="M71 431L69 511L223 506Z" fill="#24103a" stroke="#24103a"></path><path d="M717 600L812 600L705 506Z" fill="#a6295d" stroke="#a6295d"></path><path d="M812 600L900 527L815 484Z" fill="#331342" stroke="#331342"></path><path d="M0 469L69 511L71 431Z" fill="#431649" stroke="#431649"></path><path d="M69 511L106 600L223 506Z" fill="#170b31" stroke="#170b31"></path><path d="M0 600L106 600L69 511Z" fill="#631b54" stroke="#631b54"></path><path d="M0 366L0 469L71 431Z" fill="#331342" stroke="#331342"></path><path d="M812 600L900 600L900 527Z" fill="#631b54" stroke="#631b54"></path><path d="M0 469L0 600L69 511Z" fill="#741e58" stroke="#741e58"></path></g></svg>