<svg id="visual" viewBox="0 0 900 600" width="900" height="600" xmlns="http://www.w3.org/2000/svg" xmlns:xlink="http://www.w3.org/1999/xlink" version="1.1"><path d="M0 211L13.7 206C27.3 201 54.7 191 82 188C109.3 185 136.7 189 163.8 191C191 193 218 193 245.2 200C272.3 207 299.7 221 327 217C354.3 213 381.7 191 409 185C436.3 179 463.7 189 491 195C518.3 201 545.7 203 573 203C600.3 203 627.7 201 654.8 192C682 183 709 167 736.2 159C763.3 151 790.7 151 818 145C845.3 139 872.7 127 886.3 121L900 115L900 0L886.3 0C872.7 0 845.3 0 818 0C790.7 0 763.3 0 736.2 0C709 0 682 0 654.8 0C627.7 0 600.3 0 573 0C545.7 0 518.3 0 491 0C463.7 0 436.3 0 409 0C381.7 0 354.3 0 327 0C299.7 0 272.3 0 245.2 0C218 0 191 0 163.8 0C136.7 0 109.3 0 82 0C54.7 0 27.3 0 13.7 0L0 0Z" fill="#ff79cd"></path><path d="M0 361L13.7 363C27.3 365 54.7 369 82 357C109.3 345 136.7 317 163.8 306C191 295 218 301 245.2 321C272.3 341 299.7 375 327 370C354.3 365 381.7 321 409 308C436.3 295 463.7 313 491 314C518.3 315 545.7 299 573 310C600.3 321 627.7 359 654.8 362C682 365 709 333 736.2 318C763.3 303 790.7 305 818 302C845.3 299 872.7 291 886.3 287L900 283L900 113L886.3 119C872.7 125 845.3 137 818 143C790.7 149 763.3 149 736.2 157C709 165 682 181 654.8 190C627.7 199 600.3 201 573 201C545.7 201 518.3 199 491 193C463.7 187 436.3 177 409 183C381.7 189 354.3 211 327 215C299.7 219 272.3 205 245.2 198C218 191 191 191 163.8 189C136.7 187 109.3 183 82 186C54.7 189 27.3 199 13.7 204L0 209Z" fill="#ff53be"></path><path d="M0 427L13.7 431C27.3 435 54.7 443 82 440C109.3 437 136.7 423 163.8 406C191 389 218 369 245.2 381C272.3 393 299.7 437 327 445C354.3 453 381.7 425 409 420C436.3 415 463.7 433 491 430C518.3 427 545.7 403 573 407C600.3 411 627.7 443 654.8 436C682 429 709 383 736.2 371C763.3 359 790.7 381 818 387C845.3 393 872.7 383 886.3 378L900 373L900 281L886.3 285C872.7 289 845.3 297 818 300C790.7 303 763.3 301 736.2 316C709 331 682 363 654.8 360C627.7 357 600.3 319 573 308C545.7 297 518.3 313 491 312C463.7 311 436.3 293 409 306C381.7 319 354.3 363 327 368C299.7 373 272.3 339 245.2 319C218 299 191 293 163.8 304C136.7 315 109.3 343 82 355C54.7 367 27.3 363 13.7 361L0 359Z" fill="#ff00ae"></path><path d="M0 487L13.7 491C27.3 495 54.7 503 82 504C109.3 505 136.7 499 163.8 488C191 477 218 461 245.2 468C272.3 475 299.7 505 327 510C354.3 515 381.7 495 409 493C436.3 491 463.7 507 491 506C518.3 505 545.7 487 573 488C600.3 489 627.7 509 654.8 504C682 499 709 469 736.2 454C763.3 439 790.7 439 818 440C845.3 441 872.7 443 886.3 444L900 445L900 371L886.3 376C872.7 381 845.3 391 818 385C790.7 379 763.3 357 736.2 369C709 381 682 427 654.8 434C627.7 441 600.3 409 573 405C545.7 401 518.3 425 491 428C463.7 431 436.3 413 409 418C381.7 423 354.3 451 327 443C299.7 435 272.3 391 245.2 379C218 367 191 387 163.8 404C136.7 421 109.3 435 82 438C54.7 441 27.3 433 13.7 429L0 425Z" fill="#dc0197"></path><path d="M0 601L13.7 601C27.3 601 54.7 601 82 601C109.3 601 136.7 601 163.8 601C191 601 218 601 245.2 601C272.3 601 299.7 601 327 601C354.3 601 381.7 601 409 601C436.3 601 463.7 601 491 601C518.3 601 545.7 601 573 601C600.3 601 627.7 601 654.8 601C682 601 709 601 736.2 601C763.3 601 790.7 601 818 601C845.3 601 872.7 601 886.3 601L900 601L900 443L886.3 442C872.7 441 845.3 439 818 438C790.7 437 763.3 437 736.2 452C709 467 682 497 654.8 502C627.7 507 600.3 487 573 486C545.7 485 518.3 503 491 504C463.7 505 436.3 489 409 491C381.7 493 354.3 513 327 508C299.7 503 272.3 473 245.2 466C218 459 191 475 163.8 486C136.7 497 109.3 503 82 502C54.7 501 27.3 493 13.7 489L0 485Z" fill="#ba0180"></path></svg>